# xmcd
#
# Track frame offsets:
#	150
#	5517
#	28157
#	53462
#	83374
#	115838
#	146903
#	148112
#	180539
#	208061
#	235876
#	260910
#	261855
#	292078
#	322248
#
# Disc length: 4682 seconds
#
# Revision: 1
# Processed by: cddbd v1.5.2PL0 Copyright (c) Steve Scherf et al.
# Submitted via: audiograbber 1.83.01
#
DISCID=e512480f
DTITLE=Karl Menrad - Die Fantastischen Abenteuer Des Pan Tau [CD1)
DYEAR=2009
DGENRE=Kinderhörbuch
TTITLE0=Vorhang Auf Für Pan Tau!
TTITLE1=Pan Tau und glitzernde Sterne - Teil 1
TTITLE2=Pan Tau und glitzernde Sterne - Teil 2
TTITLE3=Pan Tau und glitzernde Sterne - Teil 3
TTITLE4=Pan Tau und glitzernde Sterne - Teil 4
TTITLE5=Pan Tau und glitzernde Sterne - Teil 5
TTITLE6=Pan Tau und glitzernde Sterne - Teil 6
TTITLE7=Weihnachten feiern einmal anders - Teil 1
TTITLE8=Weihnachten feiern einmal anders - Teil 2
TTITLE9=Weihnachten feiern einmal anders - Teil 3
TTITLE10=Weihnachten feiern einmal anders - Teil 4
TTITLE11=Weihnachten feiern einmal anders - Teil 5
TTITLE12=Eine Skifahrt, die ist lustig... - Teil 1
TTITLE13=Eine Skifahrt, die ist lustig... - Teil 2
TTITLE14=Eine Skifahrt, die ist lustig... - Teil 3
EXTD=
EXTT0=
EXTT1=
EXTT2=
EXTT3=
EXTT4=
EXTT5=
EXTT6=
EXTT7=
EXTT8=
EXTT9=
EXTT10=
EXTT11=
EXTT12=
EXTT13=
EXTT14=
PLAYORDER=
